<svg width="30" height="30" viewBox="0 0 30 30" fill="none" xmlns="http://www.w3.org/2000/svg">
<path fill-rule="evenodd" clip-rule="evenodd" d="M15 0C23.2846 0 30 6.71543 30 15C30 23.2846 23.2846 30 15 30C6.71543 30 0 23.2846 0 15C0 6.71543 6.71543 0 15 0Z" fill="#CC6404"/>
<path fill-rule="evenodd" clip-rule="evenodd" d="M15.0006 17.8959C13.401 17.8959 12.1043 16.5998 12.1043 15.0002C12.1043 13.4005 13.401 12.1044 15 12.1044C16.5996 12.1044 17.8963 13.4005 17.8963 15.0002C17.8963 16.5992 16.5996 17.8959 15 17.8959H15.0006ZM11.4182 6.3646C8.19727 6.51167 6.50508 8.32339 6.36504 11.4183C6.25723 13.7609 6.25723 16.2394 6.36504 18.5826C6.50508 21.6769 8.19727 23.4892 11.4182 23.6357C13.7613 23.7429 16.2393 23.7429 18.5824 23.6357C21.6773 23.4945 23.4885 21.8046 23.6361 18.5826C23.7428 16.2388 23.7422 13.7621 23.6361 11.4183C23.492 8.26362 21.7371 6.50815 18.5824 6.3646C16.2393 6.25737 13.7613 6.25737 11.4182 6.3646ZM18.5109 7.92847C20.8512 8.03511 21.9662 9.14898 22.0723 11.4892C22.1777 13.7837 22.1771 16.2166 22.0723 18.5111C21.9633 20.9187 20.7908 21.9681 18.5109 22.0724C16.2158 22.1767 13.7848 22.1767 11.4896 22.0724C9.20977 21.9681 8.03789 20.9187 7.92832 18.5111C7.82344 16.2166 7.82344 13.7837 7.92832 11.4892C8.03203 9.20933 9.08203 8.03862 11.4896 7.92847C13.7848 7.82358 16.2158 7.823 18.5109 7.92847ZM20.6807 10.3625C20.6807 10.9378 20.2137 11.4048 19.6383 11.4048C19.0617 11.4048 18.5953 10.9384 18.5953 10.3625C18.5953 9.78648 19.0617 9.32007 19.6383 9.32007C20.2137 9.31948 20.6807 9.78648 20.6807 10.3625ZM15.0006 10.5388C12.5367 10.5388 10.5387 12.5363 10.5387 15.0002C10.5387 17.464 12.5367 19.4615 15 19.4615C17.4645 19.4615 19.4619 17.464 19.4619 15.0002C19.4619 12.5363 17.4645 10.5388 15.0006 10.5388Z" fill="white"/>
</svg>
