<svg width="30" height="30" viewBox="0 0 30 30" fill="none" xmlns="http://www.w3.org/2000/svg">
<path d="M29.6484 15.0515C29.6484 23.1413 23.0898 29.7 15 29.7C6.91014 29.7 0.351562 23.1413 0.351562 15.0515C0.351562 6.96165 6.91014 0.403076 15 0.403076C23.0898 0.403076 29.6484 6.96165 29.6484 15.0515Z" fill="#CC6404"/>
<path d="M23.7514 16.2297V22.2693H20.2502V16.6351C20.2502 15.2199 19.7453 14.2535 18.4766 14.2535C17.5102 14.2535 16.9351 14.905 16.6814 15.5348C16.5884 15.7593 16.5654 16.0716 16.5654 16.3878V22.2694H13.063C13.063 22.2694 13.1102 12.726 13.063 11.7381H16.5654V13.2309C16.5591 13.2424 16.5489 13.2537 16.5424 13.2652H16.5654V13.2309C17.0308 12.5145 17.8608 11.4906 19.721 11.4906C22.025 11.4906 23.7514 12.9963 23.7514 16.2297ZM9.40127 6.66211C8.20273 6.66211 7.41992 7.44879 7.41992 8.48156C7.41992 9.4926 8.17983 10.3008 9.35539 10.3008H9.37707C10.5985 10.3008 11.3584 9.49266 11.3584 8.48156C11.3355 7.44885 10.5985 6.66211 9.40127 6.66211ZM7.62775 22.2694H11.1276V11.7381H7.62775V22.2694Z" fill="#F2F2F2"/>
</svg>
