<svg width="30" height="30" viewBox="0 0 30 30" fill="none" xmlns="http://www.w3.org/2000/svg">
<g clip-path="url(#clip0_67_205)">
<path d="M30 15C30 17.9667 29.1203 20.8668 27.472 23.3336C25.8238 25.8003 23.4811 27.7229 20.7402 28.8582C17.9994 29.9935 14.9834 30.2906 12.0736 29.7118C9.16392 29.133 6.49118 27.7044 4.39339 25.6066C2.2956 23.5088 0.866991 20.8361 0.288212 17.9264C-0.290566 15.0166 0.00648402 12.0006 1.1418 9.25975C2.27711 6.51886 4.1997 4.17618 6.66644 2.52796C9.13317 0.879735 12.0333 5.9324e-07 15 5.9324e-07C16.97 -0.000553507 18.9208 0.387055 20.7409 1.14068C22.561 1.8943 24.2148 2.99917 25.6078 4.39216C27.0008 5.78515 28.1057 7.43896 28.8593 9.2591C29.6129 11.0792 30.0005 13.03 30 15Z" fill="#CC6404"/>
<path d="M12.2499 21.8746C11.7625 21.8746 11.8499 21.6872 11.6748 21.2245L10.25 16.525L19.1 11L20.1374 11.275L19.275 13.6247L12.2499 21.8746Z" fill="#C8DAEA"/>
<path d="M12.25 21.8747C12.3951 21.8718 12.5376 21.8367 12.6674 21.7718C12.7971 21.7069 12.9108 21.614 13.0001 21.4997C13.3251 21.1873 17.5 17.1248 17.5 17.1248L14.9376 16.4998L12.5627 17.9996L12.25 21.7497V21.8747Z" fill="#A9C9DD"/>
<path d="M12.5004 18.0499L18.5492 22.5124C19.2366 22.8874 19.7367 22.6998 19.9117 21.875L22.3749 10.275C22.6249 9.26258 21.9875 8.81254 21.3248 9.11257L6.87543 14.6875C5.88798 15.0876 5.90034 15.6376 6.70042 15.875L10.4128 17.0375L19.001 11.6249C19.4011 11.3748 19.7761 11.5125 19.4761 11.7872L12.5004 18.0499Z" fill="url(#paint0_linear_67_205)"/>
</g>
<defs>
<linearGradient id="paint0_linear_67_205" x1="16.1168" y1="14.7787" x2="18.4696" y2="9.44313" gradientUnits="userSpaceOnUse">
<stop stop-color="#EFF7FC"/>
<stop offset="1" stop-color="white"/>
</linearGradient>
<clipPath id="clip0_67_205">
<rect width="30" height="30" fill="white"/>
</clipPath>
</defs>
</svg>
