<svg width="30" height="30" viewBox="0 0 30 30" fill="none" xmlns="http://www.w3.org/2000/svg">
<path fill-rule="evenodd" clip-rule="evenodd" d="M15 0C23.2846 0 30 6.71543 30 15C30 23.2846 23.2846 30 15 30C6.71543 30 0 23.2846 0 15C0 6.71543 6.71543 0 15 0Z" fill="#CC6404"/>
<path fill-rule="evenodd" clip-rule="evenodd" d="M18.3691 6.21143C18.3697 6.47978 18.4488 10.3616 22.5217 10.6036C22.5217 11.7228 22.5228 12.5343 22.5228 13.6024C22.2146 13.62 19.8416 13.4478 18.3644 12.1306L18.3598 17.9688C18.416 22.0212 15.4342 24.4868 11.5359 23.6349C4.81465 21.6245 7.04824 11.656 13.7971 12.7224C13.7971 15.9409 13.7988 12.7218 13.7988 15.9409C11.0109 15.5308 10.0781 17.8499 10.8193 19.511C11.4932 21.0227 14.2693 21.3503 15.2379 19.2175C15.3475 18.8003 15.4019 18.3239 15.4019 17.7895V6.19678L18.3691 6.21143Z" fill="white"/>
</svg>
