<svg width="30" height="30" viewBox="0 0 30 30" fill="none" xmlns="http://www.w3.org/2000/svg">
<g clip-path="url(#clip0_67_224)">
<path d="M15.0001 30C23.2843 30 30.0001 23.2843 30.0001 15C30.0001 6.71574 23.2843 0 15.0001 0C6.71578 0 4.57764e-05 6.71574 4.57764e-05 15C4.57764e-05 23.2843 6.71578 30 15.0001 30Z" fill="#CC6404"/>
<path d="M24.6177 9.03328C23.9102 9.34723 23.1503 9.55947 22.3513 9.65487C23.1667 9.16657 23.7914 8.39279 24.0864 7.47187C23.3118 7.93194 22.464 8.25583 21.58 8.42947C20.8606 7.66261 19.8346 7.18384 18.6996 7.18384C16.5211 7.18384 14.7542 8.94995 14.7542 11.1298C14.7542 11.4387 14.789 11.74 14.8559 12.0293C11.5763 11.8645 8.66878 10.2935 6.7226 7.90648C6.38277 8.48946 6.18826 9.16729 6.18826 9.89049C6.18826 11.2593 6.88498 12.4671 7.94363 13.1745C7.31693 13.1551 6.70397 12.9859 6.15602 12.6812V12.731C6.15602 14.6431 7.51599 16.2374 9.32129 16.6C8.98966 16.6909 8.64163 16.7383 8.28158 16.7383C8.02701 16.7383 7.78003 16.7142 7.53876 16.6689C8.04092 18.236 9.49823 19.3768 11.2245 19.409C9.87397 20.4677 8.17227 21.0987 6.32405 21.0987C6.00571 21.0987 5.69109 21.0797 5.38223 21.0425C7.1288 22.1624 9.20256 22.8162 11.4311 22.8162C18.6889 22.8162 22.6583 16.8034 22.6583 11.5891C22.6583 11.4179 22.6545 11.248 22.6462 11.0787C23.4196 10.5193 24.0872 9.82669 24.6177 9.03328Z" fill="white"/>
</g>
<defs>
<clipPath id="clip0_67_224">
<rect width="30" height="30" fill="white"/>
</clipPath>
</defs>
</svg>
