<svg width="30" height="30" viewBox="0 0 30 30" fill="none" xmlns="http://www.w3.org/2000/svg">
<path d="M20.4 15.0001L11.4 19.6766L11.4 10.3236L20.4 15.0001Z" fill="white"/>
<path d="M14.9995 0.468262C6.97453 0.468262 0.46875 6.97405 0.46875 15C0.46875 23.025 6.97453 29.5317 14.9995 29.5317C23.0255 29.5317 29.5312 23.025 29.5312 15C29.5312 6.97405 23.0255 0.468262 14.9995 0.468262ZM11.7188 19.4733V10.5272L20.2617 15.0155L11.7188 19.4733Z" fill="#CC6404"/>
<path d="M19.6528 15.3393L12.6562 18.9839L12.8114 20.534L21.2344 16.1564L19.6528 15.3393ZM1.53328 16.1414C1.53328 8.11544 8.03906 1.60967 16.0641 1.60967C19.9842 1.60967 23.5397 3.16451 26.1534 5.68825C23.4881 2.49841 19.4817 0.468262 14.9995 0.468262C6.97453 0.468262 0.46875 6.97403 0.46875 15C0.46875 19.1053 2.17406 22.8103 4.91156 25.4535C2.72504 22.8436 1.52881 19.5462 1.53328 16.1414Z" fill="#CC6404"/>
<path d="M20.2575 15.0239L19.3922 15.4749L11.753 19.4752L20.6634 28.3856C23.5527 27.1574 25.9685 25.0296 27.5517 22.3186L20.2575 15.0239Z" fill="#CC6404"/>
</svg>
